<!-- Created with Inkscape (http://www.inkscape.org/) -->
<svg xmlns:rdf="http://www.w3.org/1999/02/22-rdf-syntax-ns#" xmlns="http://www.w3.org/2000/svg" height="600" width="900" version="1.1" xmlns:cc="http://creativecommons.org/ns#" xmlns:dc="http://purl.org/dc/elements/1.1/">
 <metadata>
  <rdf:RDF>
   <cc:Work rdf:about="">
    <dc:format>image/svg+xml</dc:format>
    <dc:type rdf:resource="http://purl.org/dc/dcmitype/StillImage"/>
    <dc:title/>
   </cc:Work>
  </rdf:RDF>
 </metadata>
 <g transform="translate(-91.441794,-275.58034)">
  <g>
   <g transform="matrix(0.0635,0,0,0.14111111,451.44182,727.08034)" fill-rule="nonzero">
    <path style="color:#000000;enable-background:accumulate;" d="m-5669.2918-2490.9449,14173.2292,0,0,2834.64567-14173.2292,0z" fill="#FFF"/>
    <path style="color:#000000;enable-background:accumulate;" d="m-5669.2918-364.96063,14173.2291,0,0,1417.32283-14173.2291,0z" fill="#436f4d"/>
    <path style="color:#000000;enable-background:accumulate;" d="m-5669.2918-3199.6063,14173.2291,0,0,1417.3228-14173.2291,0z" fill="#cd2a3e"/>
   </g>
   <g transform="translate(-992.98728,0)">
    <path d="m1294.4291,575.58034,240-240,240,240-240,240z" fill="#FFF"/>
    <g transform="matrix(0.44863556,0,0,0.44863556,1310.1115,327.77053)">
     <g stroke="#436f4d" transform="matrix(1.04,0,0,1.04,-20.000001,-22.094486)">
      <path stroke-width="135.79646301" d="M932.10181,600.37367,692.04525,360.31719,307.95475,744.40756,67.898232,504.35108m480.113028-384.09043-240.05651,240.05654,384.0905,384.09037-240.05652,240.05639" fill="none"/>
      <path stroke-linejoin="round" d="m477.22293,430.6573c-0.76593,1.08911-0.62779-0.27076-1.6263,0.39467-0.87747,0.0401-1.26316,0.70923-1.84955,0.32586-0.92137-0.0703-0.75292,1.17884-1.6304,1.29493-0.45931,1.28105-1.3997,1.16242-1.99351,1.56518-0.6886,0.34774-0.75195,0.60718-1.2509,0.22899-0.79081,0.43882-0.85708,0.0895-1.2202,1.02195,0.3235,1.61979-1.25675,2.19355-1.94983,3.21709,0.0331,0.46892,0.11853,1.06788-0.2755,1.46646-0.2324,0.3253-0.28195,0.41311-0.85999,0.34108-2.05744-1.62987-5.33493,2.35041-5.42255-4.80047-1.05195-0.86725-2.99728-0.005-4.08323-0.84736-0.47564,0.10453-1.42131-0.0982-1.87209,0.0736-2.10372,3.1008-2.45151-0.62777-4.5655,0.77385-2.07919,1.31676-2.45965,3.33935-5.50242,4.11345-0.56248,0.72608-0.4049,1.64666-1.18075,2.09042-0.21819,0.37813-0.10305,0.86957-0.33476,1.22754-0.44145,0.28742-0.98007,0.0638-1.43573,0.28035-0.89667,2.00678-2.25173,0.7915-4.00685,1.07397-1.18777,1.56801-1.2276,2.65649-1.15959,4.60273-1.57888,2.28551-1.55537,3.98403-2.48044,6.12451-0.11077,0.10625-0.61884,0.53272-0.88601,0.61849-2.13692,0.3315-3.51878,0.33699-4.46446,2.19232-0.0195,0.30732,0.00097,0.72531-0.0874,0.94728-0.72183,1.57307-2.55489,0.77179-4.01968,2.38847-0.49431,0.0807-0.95481,0.75744-1.39123,0.93896-0.45094,0.0455-1.15101-0.30184-1.57303-0.10518-0.34858,0.24695-0.36432,0.69537-0.49488,1.06834-1.52255-0.19662-1.99025,1.57793-3.2458,2.02668-0.65597-0.78885-1.63233-1.12106-2.49348-1.27514-1.8579-0.33232-1.55615,0.43183-2.89488,1.05753-0.73446-0.91558-1.56237-1.91101-2.55699-2.66666-0.73117-0.55527-1.11587,0.19274-2.49289-1.15035-0.19431,0.252-0.31321,0.85385-0.41521,0.9699-0.79997,0.24212-0.85883,0.96398-1.67799,1.19602-0.82287,1.55972-0.93945,3.11746-2.92228,3.45017-0.25687,1.97148-2.52533,4.01416-2.39458,6.03108-0.51895,0.84705,0.18266,1.77598-0.44939,2.49223,0.12239,1.00843,0.20148,2.28109-0.76053,2.7744-1.0055,0.36841-1.00763,1.27642-1.40031,1.99227-0.36509,3.61537-1.02515,2.35321-1.19125,3.25927-0.0991,0.53042-0.0331,1.15402,0.33322,2.14448,1.34747-0.33479,0.99519-0.59069,1.20214,0.34015-0.22404,1.25325-0.0233,2.03138,0.27746,2.66498,0.33479,0.70793,0.95305,0.38079,0.93886,2.04231,0.23043,0.77547,0.70552,1.89627,1.11976,3.02353,0.52403,1.42355,1.0286,2.11005,0.6711,3.61874-0.49216,0.47688,0.25706,1.88253-1.61115,1.70885-0.50885-0.47898-0.39675-2.33841-1.0799-2.23762-0.44147,0.73612-1.63252,0.57866-1.73901,1.52147-0.31474,0.15135-0.75991,0.58853-1.07507,0.73478-0.84363,1.23029-1.10828-0.15894-1.85014,0.82968-0.0971,0.56463-1.55886,0.15563-1.58313,0.72507-0.0894,0.0499-0.18459,0.0935-0.27728,0.14418-0.19933,0.0753-0.6029,0.0577-0.8359,0.12863-1.44441-0.68069-0.45815,1.07489-1.85907,0.71185-0.36333-0.26719-1.24642,0.41118-1.53225,0.0831-0.80032-0.31269-1.57637,0.84476-2.34229,1.01613-0.50499,0.39309-1.21906,0.3617-1.5439,0.72536-0.75467,0.84527-0.72067,1.94455-1.89213,2.00958-0.16125,0.66556-0.76107,0.72622-0.61592,1.30108-0.29883,0.73172-0.66025,1.26679-1.74483,1.48001-0.41948,2.1632-0.19605,3.17575-0.81565,4.03142,0.66876,1.67394,2.37513,1.78775,3.02954,3.39617-0.72204,1.6638-1.27834,2.28991-2.36855,3.71673-0.19235,0.67063-0.068,1.03216,0,1.66762-0.21255,2.28676-0.75679,2.74003-1.82392,3.50797-0.77096,0.77647-2.81851,0.39804-3.45135,1.016-0.45564,0.19662-0.97245-0.0221-1.4283,0.18166-0.22774,1.24035-1.67934,1.12866-2.09126,2.19758-0.49917,1.27732,0.31943,0.69863,0.12048,2.13722,0.98528,0.73825,1.38594,1.67882,1.38672,2.53115,0,1.21561-0.31304,2.28885-0.49258,3.2801-0.3783,2.07248-0.60173,3.33057,0.26619,4.81292-0.49446,0.81175,1.45942,1.40758,1.15845,2.28994-0.43601,0.34787-1.06905,1.5254-1.45689,1.94385-0.7152,2.41168-0.59783,3.09704-1.86664,4.92062-0.81432,1.79025-0.62176,3.36085-1.1316,4.27977-0.60293,1.08714-0.86056,2.0108-0.63517,3.17646,0.0214,0.45897,0.76904,0.93731,0.5219,1.34131,0.00098,0.17605,0,0.38077,0.0408,0.5383,0.91125,1.10469,2.9654,3.75767,5.13128,4.24139,0.29009,1.46234,1.25907,1.18118,2.25737,1.95207-1.10712,1.55297-2.70172,1.7238-1.21417,3.13584-0.16711,1.07971,0.7461,1.40135,0.51313,2.41446l1.07976,2.60202c-0.0465,0.88736-5.2067-1.46967-7.07801-0.18906-0.17875,0.39855,0.0213,0.87707-0.18848,1.26546-0.61087,0.0808-1.02434,1.13282-1.52389,1.44513-0.77546,0.48806-1.61892,0.28362-2.34599,0.57598-1.33312,0.53437-2.22882,1.32532-3.58408,1.08072-0.49936,0.82133-0.74376,1.41515-1.0055,2.33156-0.15738,0.16185-0.41522,0.40927-0.56094,0.45469-1.09081-0.12182-2.11246-0.16435-3.24192,0.0573-1.77416,1.80512-2.77657,2.55116-1.55479,5.24361,0.92097,0.88842,0.88619,0.0174,1.59888,1.02634,0.55728,1.64271,2.31918,0.83393,0.70204,3.88692,0.47233,2.33604-0.68278,2.64339-1.1256,3.87511-0.32818,0.91039,0.20129,1.86683-0.33984,1.93766-1.42984,0.20676-3.01185-0.25462-4.39371,0.17368-3.00858,1.90595-2.96622,0.95013-4.35758,1.62069-0.77547,2.08238-5.57218,1.24973-4.75242,4.11466,0.11076,0.10549,0.2351,0.2404,0.37151,0.31071,0.52655,0.33444,2.70505-0.19662,3.10124,0.67249,0.50557,0.30235,0.45116,0.97774,0.39928,1.12548-0.10882,0.69806-4.41666,1.52357-3.88253,2.25166-0.35848,1.10423,0.2866,0.69898,0.34701,1.85924,0.92645,0.98649,1.83734,1.56396,1.20489,3.27828-1.01409,0.64803-1.9098,1.03182-2.6942,1.28089-1.23614,0.39255-0.9344,1.55466-1.30102,1.43673-2.22593-0.69144-2.93551-2.74066-4.25735-3.42126-0.61748-0.37792-1.15763,0.12299-1.61229-0.11346-1.14367-0.59496-1.25947-1.80663-3.34004-1.57455-0.83452,0.4994,0.37657,2.29104-1.69041,1.79591-2.12859,0.0458-2.18044-3.47446-4.37177-3.3797-0.10497-0.11095-0.23763-0.24977-0.30662-0.38641,0.29612-1.61345-0.9851-2.62385-1.94495-3.6071-0.10306-0.39648,0-0.82172-0.10306-1.21969-0.29709-0.70053-0.45135-1.91319-1.26605-1.7366-1.09391,0.86134-1.05254,2.27863-2.38718,3.02959-0.43172,0.59493-0.0272,0.91805-0.21199,1.5735-1.15841,1.21014-2.51813,2.61723-2.53699,4.38685-1.07253,0.8662-1.1864,3.51443-1.29326,4.92115-1.03311,0.40321-1.57344,0.1541-1.4524,1.41476,0.0311,0.0436,0.69872,0.0347,0.71854,0.0756,0.33457,0.53549,0.36118,0.26074,0.85568,0.41711,1.04886,0.56914,1.59695,0.84931,2.58092,1.628,1.03677,0.82085,1.80777,1.65033,2.57777,2.75963,1.2307,1.53555,2.3254,2.64154,3.30002,3.82694,1.09643,1.33372,0.94584,0.25176,3.60738,2.83393,0.30989,0.1603,0.66063,0.98115,1.05331,1.24847,0.17292,0.70941,0.45525,1.35419,0.38375,2.27531,0.14573,0.58504,0.47757,0.71802,0.57453,1.308,0.4605,1.05382,0.36375,0.83451,0.48654,1.63085,0.12628,0.80168-1.52098,2.99793-1.68072,4.07596-0.16125,1.03968,0.10689,1.94656-0.12434,2.74313-0.31493,1.06896-0.0991,1.99257-0.0292,3.34381,0.07,0.44362,0.2155,0.74507,0.42495,1.10306-0.22559,2.02382,0.9507,3.25874,2.08096,5.30713,0.75155,1.04375,1.49185,1.96256,2.5776,3.56597,1.27518,1.88064,2.38736,3.27343,3.60951,5.05831,1.30257,1.5182,1.16795,1.54323,2.59432,1.61231,0.16903-0.59373,0.33342-1.14788,0.838-1.4701,0.12826-0.0231,0.21822,0.00098,0.30563,0.0225,0.71836,0.30256,0.54968,0.76096,0.90391,1.06841,1.31212,0.46925,2.54339,1.39087,4.7252,2.04261,0.80383,1.2024,1.2923,1.96949,2.27157,2.56943,0.79023,0.18653,1.69411,0.14807,2.49892,0.20424,1.29734,1.56927,2.2117,2.24542,5.55835,3.25118,4.54879-0.72479,3.11307,5.61426,6.90389,4.9034,0.36803,0.16612,0.74165,0.30079,1.1149,0.44706,1.21186-1.46917,0.98337-4.26446,3.7743-4.21331,0.82892-0.68063,0.7611-2.15337-0.0428-2.81894-0.34371-1.82075,0.87612-0.63095,0.15546-2.51152-0.13409-0.49958-0.0933-1.05137-0.0233-1.56094,0.42184-0.68337-1.64436-0.81687-2.17615-1.45267-0.51841-0.61989,0.50342-1.73692,0.36625-2.78344-0.21937-1.66458,0.60796-2.14314,0.65127-3.64895,0.00099-0.33312-2.72971-0.00098-2.69611-0.32939-1.89985-2.19142-1.47201-4.40138-2.79772-6.2063-0.0758-0.35633,0.0233-0.73317-0.0505-1.09125-0.24928-0.57319-0.77776-0.9517-1.29674-1.18965-0.41505-2.56175-4.69839-4.3718-4.40754-7.44846-0.3064-1.58698-0.3262-3.5889,1.66769-4.64125-0.96976-1.28073-0.97539-3.32156-0.25763-4.59714-0.46169-1.54685,0.44883-2.65355,0.58-4.1359,0.5961-0.0607,1.55458,0.14049,2.0102-0.25829,0.10687,0.005,0.56818-0.78782,0.73759-0.80794,1.10071,0.44369,2.2974,0.14203,3.40257,0.39404,1.90067,1.61053,1.08129,3.2594,4.208,6.15789,0.99344,0.28635,1.01773,1.16964,1.74812,2.56992,1.07602,1.25552,2.42215,0.79514,3.75545,1.6674,1.55653-0.28634,1.97233-0.59831,2.33104-1.90334,0.42221-0.64091,0.48593-1.45464,0.56832-2.15998,0.26697-1.35641,1.79553-1.63347,2.61956-1.63226,0.23763-0.86216,0.71542-1.75482,0.82674-2.68349,1.45922-2.32845,5.155-1.19107,6.74964,0.0808,3.02449,1.73797,3.18461,0.58446,4.49728,0.33573-0.33652-0.74333-0.28584-1.50664,0.87437-1.70695,0.0331-0.78536,1.06224-1.74937,1.77221-1.74524,0.46787,0.00099,0.0427,2.14169,0.35089,1.98391,1.14268-0.6387,1.7252-0.13971,2.13052,0.40625,1.2204,0.0376,0.72532,0.9211,1.12191,1.27044,0.354,0.31202,1.18056,0.31394,1.55789,0.81543,0.67383,0.0552,1.25828,0.94869,1.6605,1.44268,1.07603,0.45894,1.69661-0.88262,3.19217-0.21014,0.52345-0.1772-0.11077-1.27073,0.47759-1.51003,0.96042,0.035,1.12424,1.89019,1.71121,1.9908,1.28179-0.2549,1.32494,0.4754,2.34016,0.10518,0.63554-0.23224,0.52324-0.92115,1.00667-0.66367,1.47999,0.21547,0.80868,2.03725,1.48796,2.09087,0.83763,0.0658,1.20912-0.80328,2.14507,0.39312,1.10052-0.94295,1.30649,0.71772,2.20378-0.90404,0.16514-0.0712,0.46399-0.0849,0.69188-0.0909,3.77876,1.44075,3.33305,3.10542,5.61743,3.90096,1.34768-0.44216,2.66971-0.30815,3.04237-1.43582-1.28413-2.11086,0.95363-1.1387,1.21129-1.74714,0.26755-0.63249-0.37774-1.1926,0.93709-1.48509,0.57746-0.13505,1.14251-0.0988,1.30416,0.43951,0.16322,0.0546,0.90271,0.81558,1.06321,0.97695-0.51508,1.58151,1.42521,2.92046,4.26646,1.81222,0.40784-0.26907-0.72298-1.97756,0.50423-2.1223,1.40926-0.47361,1.17765,1.87512,2.72467,1.16276,1.10148,0.29071,2.34112,1.19499,3.36508,1.18525,0.51842,0.74809,1.10714,1.07381,1.78543-0.0376,0.61885,0.88082,2.74646,3.66078,1.11334-0.30912,1.43261-0.53565,1.59057,0.51223,1.86997,1.23248,0.42978-0.10686,0.55801-1.83883,1.31832-1.30095,0.8664,0.14904-0.42394,0.93901-0.10878,1.24592,0.67868,0.66355,1.50057-0.68717,1.62432-0.33833,0.53474,0.70003,0.95735,2.09291,1.50606,1.80549,0.39967,2.39777,2.38095,1.52859,2.35044,2.26187-0.29805,0.76532-1.20195,1.284,0.0465,1.91743,0.23566,0.65307-1.61232-0.50429-1.2416,2.11461,1.03622-0.19662,0.97715,0.64139,1.86587,0.79195,0.88737,0.15019,0.55376,1.07208,3.19801,1.36093,0.96063,0.0897,0.73679,0.14478,1.94009-0.20505,0.14961,0.0253,1.0261-0.0273,1.18133-0.0229,0.80501-0.178,1.30067-0.076,1.78079-0.72254,1.02203-0.42155,3.14106-2.73995,3.50848-2.10804,0.28291,2.03637,1.00844,1.74945,1.94321,0.51528,0.27785-0.36666,0.38315,0.73107,1.3877,0.49192,1.96224,1.45932,2.24378,0.77703,1.69974-0.73791,2.38622,0.84787,0.53452-1.18911,1.16465-1.12455,0.99578,0.21959,0.58951-0.51414,1.84313-0.36368-0.15544-1.05468,0.90702-1.08889,2.36251-0.74074,1.87404-0.39145,2.08408,1.36772,2.76975,1.23255,0.53394-0.29221,1.22274-0.1129,1.821,0.81516,0.97499-0.0781,1.24798,1.07248,2.79889,0.89932,0.55726,0.56449-1.41296,1.54135-1.16851,2.58437-1.36284,0.55263-0.65364,0.71023-1.25675,1.99499-0.0874,1.83043,0.614,1.54367,2.10681,2.26975,0.40259,0.1964,1.35523,0.38069,1.67002,0.50686,1.55169,0.60994,0.7259,0.65806,2.12234,1.2278,0.86679,0.72379,2.80104,0.26936,3.4059,1.51804,0.12435,0.79712-2.43089,0.97569-2.11692,1.80389,0.88215,1.63543,3.06434-1.32232,4.34166-1.76219,1.42366-0.004,2.48318-1.41514,2.97533-1.45634,0.98319-0.0917-0.00038,1.98302,0.96978,1.90728,0.79506,0.4386,1.12228-2.04309,1.78717-2.03636,0.80013,0.15779-0.88855,2.66583,1.6331,2.03817,0.56772-0.20157,0.52053-0.87337,0.8965-1.41927-0.14378-1.25891,1.10382-2.68413,3.41525-2.68776,0.82401-0.61501,0.76726-1.37245,1.44499-2.17906,1.55947,0.48872,2.62423-0.73473,3.47663-1.48503,1.45997,0.13078,1.63737,2.4681,1.08031,3.42558-0.31884,1.4238,2.78005,4.44858,6.25784,4.96537,2.89335-0.23574,4.54451,0.28063,6.65074-1.93874,1.31639-0.75553,2.74742,0.27486,4.27248,0.0526,1.17843-0.32372,1.24119-0.82821,2.22513-1.56384,0.16128-0.12124,1.30396-0.0329,1.46911-0.15931,1.23868-0.71458,1.62765-1.8205,2.82688-2.94026,0.36607-0.23784,0.75993-0.3828,1.13685-0.0607,2.00053,4.1614,7.67781,0.41504,7.58222,5.38659,0.35828,0.73614,0.40765,0.5225,1.091,1.00153,0.37752,0.10104,0.77896,0.0255,1.16579,0.0605,0.53745,0.77148,1.79359,0.33877,2.81292,0.45464,0.20906,0.0251,0.40784,0.27495,0.5825,0.2956,1.01831,0.10112,2.04211-0.10092,2.88538,0.15175,0.4898,0.14592,0.99714-0.0317,1.5746,0.13971,0.69405,0.20681,1.79125,0.8258,2.29566,1.66231-0.0991,0.66548,0.82695,1.32435,0.72648,1.9797,0.78501,0.73625,1.0976,1.51665,1.02008,2.75739,1.16778,0.78561,1.07509,1.69361,2.65009,1.79566,1.29618-0.62816,1.71179-1.5937,2.88186-3.3007,0.0584-0.68291-0.20673-2.28693,1.31952-3.26142,1.03832-0.6627-0.40066-1.02732,1.04008-2.01192,0.61456-0.35247,0.0253-1.40538,2.00615-1.07355,2.12781-2.72747,3.2085-0.65234,4.11004-1.58131-0.11657-0.79168-0.34061-1.47159-1.159-1.91632-0.40841-1.14293-1.48347-1.29184-0.78633-2.72129,1.16016-1.53722,1.00161-4.82497,2.4993-6.35263,0.0952-0.55465-0.75468-1.07362-0.82715-1.66348,1.25267-0.8852,1.42344-1.60092,2.99865-2.43292,0.0933-1.28059,2.31198-1.64764,2.54495-2.84761-0.8147-1.15469-1.92084-0.17313-2.89762-2.36238-0.13795-0.33159-0.11075-0.63933-0.10306-0.84111,0.49956-1.71895,1.42328-1.44772,2.91588-1.84303,0.0505-0.24176,0.0603-0.50278,0.0719-0.68963,1.22682-1.23533,2.85233-0.85463,4.32065-1.2731,1.74971,1.28582,3.30196-1.52907,4.78021,0.0984,0.84306,0.005,1.68246-0.28775,2.55001-0.22729,0.2423-0.20036,0.49992-0.68232,0.71387-0.8184,1.48423,0.29242,2.76314-0.77245,4.18952-0.50013,1.36202-1.34012,3.58773-0.87051,4.9698-2.14114,1.07467,0.99208,2.74004,0.85122,4.08343,0.41141,1.1901-0.38938,2.30887-1.13927,3.04451-1.89231,0.0233-0.23212,0.00078-0.57152-0.0002-0.80322,0.66101-1.23496,0.0661-1.4934-0.0776-3.75391,0.07-0.13659,0.17488-0.28312,0.24834-0.40922,0.00097-0.89681-0.15156-2.02556,0.89572-2.39459,0.60098,0.35292,1.16018,0.20401,1.902,0.69714,0.47897,1.05383,0.0738,1.7336,0.0623,2.7824,1.93368,1.15971,2.70835-1.23993,4.11937-1.69869,0.92564-0.29754,1.49322,0.86234,2.95803,0.13656,0.58639-1.01339,2.43323-1.29361,3.06433-2.23685,0.95867-0.0305,0.84074,0.30079,1.79941,0.17469,0.13213-0.0756,0.273-0.2068,0.39383-0.30308,1.46564,0.0983,3.17782-0.3089,4.43339-0.94066,1.51517-0.76145,1.9331-1.61892,3.83919-2.74948,1.64145-0.19907,2.94017-1.17919,4.48328-1.34465,1.96188,0.56258,2.29161-0.79216,4.32846-1.35648,0.9066,0.71591,1.0269-0.11543,2.39692,0.0154,1.22176,0.2925,2.40192-1.46767,3.40277,0.45474,0.60951-1.02083,1.6774,0.47272,2.34695-0.22577,0.61594,0.37826,1.26043,0.0348,1.7697-0.49411,1.68847-0.51027,0.69794,1.89992,1.7798,1.55817,0.43561-0.1364,0.88718,0.26542,1.35641,0.18032,1.25072,0.66044,1.13607,1.12946,2.5131,1.48753,0.2963,0.42319,0.77739,0.84958,1.445,0.57389,1.10967-0.43542,1.32417,0.38034,1.33001,1.80821,2.02849,1.66394,1.75627,4.01761,3.86073,4.31947,3.22793-0.22316,0.80694-3.58044,2.17328-4.24159,1.75841,0.52848,2.95062-0.35031,4.61503-1.97251,1.3331,0.83088,1.61483,1.14316,2.45694,0.3921,0.18459,0.0221,0.30407,0.10113,0.4294,0.16691,0.1974,0.42353,0.35632,1.02773,0.74764,1.34559,1.8966,0.94081,2.15326-0.11346,3.15935,0.52565,0.82735,0.52628,1.12655,1.35319,2.0215,1.67187,0.49877-0.14087,0.7333-0.67047,1.01991-1.06853,0.0273-0.55677,0.11463-1.46905,0.36508-2.31642,0.28097-0.9441,0.76728-1.80761,1.60784-2.00963,0.79974,0.35813,1.49205,0.57125,1.79767,1.36796,1.06652,0.45885,0.21528,0.868,1.0397,0.41926,0.0642-0.17177,0.0952-0.47772,0.13991-0.70483,2.76374-3.81254,2.08834-1.67184,3.6853-3.38915,1.53108-1.05319,0.7086-1.89361,3.4671-1.84779,0.73406,0.53985,1.1011-1.28278,2.05687-2.1912,0.49896-0.20678,1.97158-0.5905,2.5605-1.38794,0.0486-1.20604-0.70025-1.17425-1.06981-2.18334-0.98919-0.72646,0.81626-1.63411,0.55007-2.81689,0.24015-0.63264-0.34877-1.38961-1.11104-2.4118-0.17681-1.37883,1.62166-1.62004,1.22724-3.62582-0.29982-1.52536,0.13794-1.93027-0.0233-3.97308,0.47973-1.2091-0.14575-1.06914,0.0758-2.2289,0.31068-0.22692-0.1671-1.67032-0.0952-1.73608,0.26172-1.24977,0.0331-2.50309-0.0213-3.44101-2.38293,0.18032-2.93824-2.31644-5.86246-3.52964-1.90922-0.24253,0.6544-2.9604-0.57922-4.16713-0.26077-0.40483,0.13211-1.34696,0.29727-1.73108,0.55221-1.97328-1.21632,0.35691-1.86121-0.64925-0.69346-0.67618-0.47486-1.15859-0.53315-2.41206-0.68415-0.83666-2.10253,1.31929-3.35558,1.00072-0.77466,0.10378-0.39736-1.86967-1.20273-2.22226-0.6713-1.83716,0.0719-2.52728,1.11334-3.76632,0.10306-0.23706,0.58953-0.58233,0.54599-0.87468-0.23101-0.6966,0.19432-0.95677-0.15545-1.59638-0.32293-1.97306-0.89826-1.20563-2.48121-4.5316-0.0292-0.49402-1.70461-1.32477-1.66613-1.82896-0.54771-0.72105-0.21898-1.89685-0.93089-2.47636-0.46536-0.54453-1.66322-0.93245-1.9774-1.56253-1.9154-2.43494-2.18141-5.44223-4.39838-5.92853-0.0331-0.57017-2.15327-1.86775-2.23428-2.4224-1.31386-1.4874-2.60597-1.33782-3.88485-2.99647-0.66995,0.45963-2.00459-0.15017-2.58128-0.33677-0.65908-0.6403-2.21853-0.63101-3.1094-0.92842-0.67891-1.1597-2.08699-0.86218-3.19702-1.35122-1.29929-0.27737-1.37275-0.37476-2.52261-0.3452-2.10197-0.69478-4.04535-0.21344-5.92153-2.55808-0.11851-0.55331-0.65169-0.7687-0.10881-1.64442,0.7704-0.62841,0.67481-1.69507,1.2923-2.13802,0.73331-0.52588,1.47785,0.0853,2.44665-0.30806,0.2858-1.87064-0.0835-2.8202-1.19379-4.2939-0.59571-1.35129-0.7671-1.89076-0.27337-2.83359-0.35228-1.75487-0.74788-2.14879-2.1484-2.51187-0.18652-1.3061-1.6774-2.55744-2.02675-3.82302-1.78874-1.2403-1.30648-1.94329-3.42709-2.95479-0.10495-0.0307-1.00318-1.16089-1.10519-1.25662-2.23892-3.25662-2.11048-1.22512-3.32019-2.7437-0.93381-0.14825-1.51885-1.28377-2.13519-1.75695-0.94022-0.37818-1.44443-1.59848-1.39119-2.48591-0.67831-1.41178-0.77913-0.69848-2.19016-1.44398-0.32525-0.89754-0.57123-2.10487,0.28639-2.52332,0.28116-0.94792-0.13599-1.57092-0.11268-2.52906-1.1903-0.86015-1.10247-2.40763-2.64831-2.64531-0.16712-1.23015-0.0855-1.7591,0.24966-2.97937-0.57666-1.37133-0.95207-2.56268-1.9259-3.6368-2.47753-2.01011-3.4809-2.24451-4.43045-4.46331-1.06108-0.36306-1.7285,0.63402-1.84974,1.47095-0.28601,0.18651-0.53958,0.24252-0.74302,0.27283-0.72708-0.5899-1.49125,0.041-2.17985-0.5389-0.0002-0.27722-0.2221-0.71191-0.1535-0.92416,0.23026-0.98905-0.0428-1.94253-0.62663-2.72816,0.79509-1.56301,0.0951-1.54192-0.90758-2.33346-1.22484,0.99187-3.24172,0.32902-4.6228,1.07696-0.80112-0.54605-0.40337-2.70069-1.33524-3.39628-1.25071,0.55973-1.9331-0.48573-3.08144-0.59154-0.32018-0.4992-0.51177-1.83126-0.81644-2.34577-0.83878-0.19175-1.19649-0.17622-2.08386-0.12491-0.56717-0.74123-0.94217-1.92864-1.98945-1.8177-1.16289-2.09749-3.90565-2.57714-5.92228-1.93179-2.59976-0.39321-1.29444-1.3944-2.22902-1.43475-2.05805,0.87436-1.93371-0.15274-4.41531,0.18321-1.46928-0.49171-0.88716-2.28352-1.91678-3.14689-1.00182-0.83981-1.91405-1.1655-3.55278-1.05604-0.29048,0.38314-1.04067,0.43658-1.56879,0.33173-1.03738-0.9279-0.72631-1.38658-1.99079-2.06214-0.97368-0.93792-0.46324-1.90213-0.26833-2.89044-0.62061-0.75126-0.68551-2.08348-1.78642-2.13376-0.49042-0.43851-1.14249-0.68568-1.42832-1.32608-1.14364-0.19158-2.68444-0.10614-3.84832,0.3173-1.16288-1.20005-1.99818-3.09774-4.45377-1.84577-0.16126,0.0154-0.33574,0.0251-0.61203-0.00009-1.76621-0.16806-2.69301-0.72718-4.06497-1.74934-0.66919-0.16148-1.12327-0.12999-1.70422,0.17216-1.87074,0.0855-2.42158-2.75566-4.58415-2.39254-0.45989-0.17642-0.75581-0.60675-1.20214-0.80323-0.51333-0.13602-1.07857,0.07-1.57382-0.16672-0.11466-0.13678-0.26677-0.29616-0.36431-0.49248,0-0.40796,0.11464-0.794,0.20342-1.18224-1.71081-2.87393-4.94243-6.64675-8.51484-4.9325-0.27552-0.89768-1.05311-1.6069-1.93078-1.78841-1.30472-1.31094-3.23432-1.76908-4.84352-1.66316-1.28026,0.0857-1.93483-0.55908-2.54573,1.12672-0.93867,0.3796-2.03026-0.31272-2.92754-0.78668-1.97391-1.70177-2.91801-1.19801-3.57687,1.33634-1.63468,1.32662-3.33673-1.90685-4.79148-0.26815-0.40706,0.61004,0.85805,1.16486,0.95947,1.78007-1.48465,0.5924-1.03854,1.10035-2.12915,1.61962-0.20849,0.56471-2.06603,1.93412-3.58563-0.0174-0.48343-0.0633-0.50694,0.7511-1.62631,0.35085-0.4908,0.33543-1.05543,0.0909-1.01715-0.9073-0.20791-1.538-1.00396-1.6946-1.92979-2.70298-2.52942-0.12786-4.60632,1.1591-6.07679,0.67474-0.60096-0.49417-1.07952-1.26068-1.89442-1.38669-0.47546,0.33261-0.70277,1.00812-1.275,1.21997-0.37384-0.01-2.80046-0.0513-3.14943-0.19765,0.86329-2.44768-1.61211-1.37684-3.37985-3.16685-1.02223,1.08038-1.85033,1.31915-2.81951,2.1208,0.49917,1.5787-0.87707,1.46297-0.77407,2.23103,0.0582,0.42119,0.37964,0.8277,1.23184,1.18208,2.50474,1.45199-0.3068,1.82775,0.0991,2.97613-0.12824,1.24418-1.29325,2.39924-0.70804,2.84945,3.30623,2.54251-0.1321,2.99852-2.54846,2.76744-1.1106-0.95822,1.95877-1.63195-2.03471-3.20846-0.89551,0.51215-1.75899,0.73026-2.27333,1.36361-0.33128,0.40792-1.24,0.18013-2.29991-0.24694l-1.13687-0.52292c0.26676-1.81007,2.54729-3.51902,1.48057-4.98127-0.0253-0.81711-0.46107-2.41339-0.26833-3.06857-0.0427-1.54282-0.0933-1.81577,0.3651-3.41914,0.52404-0.64548,1.99216-1.58027,2.17636-2.44247-0.0349-0.73891-0.77255-1.05834-1.36848-1.99359-0.78961-0.48342-1.77667-0.9565-3.38141-0.80356-0.47506-0.33785-2.52899-1.24168-2.87292-1.67047-0.82871-0.14844-0.73467-0.23787-1.21671-0.12841z" stroke-dasharray="none" stroke-miterlimit="4" stroke-width="1.49985242" fill="#FFF"/>
     </g>
    </g>
   </g>
  </g>
 </g>
</svg>
